<svg width="370" height="264" viewBox="0 0 370 264" fill="none" xmlns="http://www.w3.org/2000/svg">
<g clip-path="url(#clip0)">
<path d="M317.146 -0.00088501H52.8608C23.6686 -0.00088501 0.00363159 23.6385 0.00363159 52.7991V211.199C0.00363159 240.36 23.6686 263.999 52.8608 263.999H317.146C346.339 263.999 370.004 240.36 370.004 211.199V52.7991C370.004 23.6385 346.339 -0.00088501 317.146 -0.00088501Z" fill="#D3D3D3"/>
<path d="M317.147 5.27911H52.8608C26.5878 5.27911 5.28935 26.5545 5.28935 52.7991V211.199C5.28935 237.444 26.5878 258.719 52.8608 258.719H317.147C343.419 258.719 364.718 237.444 364.718 211.199V52.7991C364.718 26.5545 343.419 5.27911 317.147 5.27911Z" stroke="#6C7679"/>
<path d="M19.4868 142.707H94.2268C103.232 142.706 112.149 144.476 120.469 147.918C128.789 151.359 136.349 156.404 142.717 162.764C149.085 169.124 154.137 176.675 157.583 184.986C161.03 193.296 162.804 202.204 162.804 211.199C162.804 224.692 160.143 238.053 154.974 250.519C149.805 262.985 142.228 274.312 132.677 283.853C123.125 293.395 111.786 300.963 99.3064 306.127C86.8269 311.29 73.4514 313.948 59.9436 313.948H19.4868C14.9846 313.948 10.5266 313.062 6.36717 311.341C2.20774 309.62 -1.5716 307.098 -4.75509 303.917C-7.93857 300.737 -10.4638 296.962 -12.1867 292.807C-13.9096 288.652 -14.7964 284.199 -14.7964 279.702L-14.7964 176.953C-14.7964 167.87 -11.1844 159.16 -4.75509 152.737C1.67425 146.315 10.3943 142.707 19.4868 142.707V142.707Z" fill="#D3D3D3"/>
<path d="M20.6496 147.987H93.8462C110.733 147.987 126.928 154.688 138.869 166.616C150.81 178.544 157.518 194.721 157.518 211.59C157.518 224.338 155.004 236.962 150.12 248.74C145.236 260.518 138.078 271.22 129.054 280.234C120.029 289.249 109.316 296.4 97.5251 301.278C85.7343 306.157 73.097 308.668 60.3348 308.668H20.6496C12.6506 308.668 4.97923 305.494 -0.676924 299.844C-6.33307 294.194 -9.51067 286.531 -9.51067 278.54V178.115C-9.51067 170.124 -6.33307 162.461 -0.676924 156.811C4.97923 151.161 12.6506 147.987 20.6496 147.987V147.987Z" stroke="#6C7679"/>
<path d="M350.521 114.163L275.781 114.163C266.775 114.165 257.858 112.394 249.538 108.953C241.218 105.511 233.658 100.466 227.29 94.1061C220.922 87.7459 215.87 80.1949 212.424 71.8843C208.978 63.5738 207.204 54.6665 207.204 45.6711C207.204 32.1779 209.864 18.8169 215.033 6.35083C220.203 -6.11523 227.779 -17.4422 237.331 -26.9833C246.882 -36.5244 258.221 -44.0928 270.701 -49.2564C283.18 -54.42 296.556 -57.0777 310.064 -57.0777H350.521C355.023 -57.0777 359.481 -56.1919 363.64 -54.4709C367.8 -52.7499 371.579 -50.2273 374.762 -47.0473C377.946 -43.8672 380.471 -40.092 382.194 -35.937C383.917 -31.7821 384.804 -27.3289 384.804 -22.8316V79.9172C384.804 88.9998 381.192 97.7104 374.762 104.133C368.333 110.555 359.613 114.163 350.521 114.163V114.163Z" fill="#D3D3D3"/>
<path d="M349.358 108.883L276.161 108.883C259.274 108.883 243.079 102.182 231.138 90.2544C219.198 78.3265 212.489 62.1489 212.489 45.2804C212.489 32.5319 215.003 19.9083 219.887 8.1302C224.771 -3.64785 231.929 -14.3497 240.954 -23.3642C249.978 -32.3787 260.691 -39.5294 272.482 -44.4081C284.273 -49.2867 296.91 -51.7977 309.673 -51.7977H349.358C357.357 -51.7977 365.028 -48.6235 370.684 -42.9735C376.34 -37.3235 379.518 -29.6604 379.518 -21.67V78.7556C379.518 86.7459 376.34 94.409 370.684 100.059C365.028 105.709 357.357 108.883 349.358 108.883V108.883Z" stroke="#6C7679"/>
<path d="M19.4868 -57.0777H59.9436C73.4514 -57.0777 86.8269 -54.42 99.3064 -49.2564C111.786 -44.0928 123.125 -36.5243 132.677 -26.9832C142.228 -17.4421 149.805 -6.11519 154.974 6.35087C160.143 18.8169 162.804 32.178 162.804 45.6711C162.804 54.6656 161.03 63.5721 157.584 71.8819C154.139 80.1918 149.088 87.7423 142.721 94.1024C136.354 100.462 128.795 105.508 120.477 108.95C112.158 112.392 103.242 114.163 94.2373 114.163H19.4868C14.9846 114.163 10.5266 113.277 6.36717 111.556C2.20774 109.835 -1.5716 107.313 -4.75509 104.133C-7.93857 100.953 -10.4638 97.1775 -12.1867 93.0226C-13.9096 88.8677 -14.7964 84.4145 -14.7964 79.9172L-14.7964 -22.8316C-14.7964 -31.9142 -11.1844 -40.6248 -4.75509 -47.0472C1.67425 -53.4696 10.3943 -57.0777 19.4868 -57.0777V-57.0777Z" fill="#D3D3D3"/>
<path d="M20.6496 -51.7977H60.3348C73.097 -51.7977 85.7343 -49.2867 97.5251 -44.408C109.316 -39.5294 120.029 -32.3787 129.054 -23.3642C138.078 -14.3496 145.236 -3.64782 150.12 8.13023C155.004 19.9083 157.518 32.5319 157.518 45.2804V45.2804C157.518 53.6328 155.871 61.9035 152.671 69.6202C149.471 77.3368 144.781 84.3483 138.869 90.2544C132.956 96.1605 125.937 100.845 118.212 104.042C110.487 107.238 102.208 108.883 93.8462 108.883H20.6496C12.6506 108.883 4.97923 105.709 -0.676924 100.059C-6.33307 94.409 -9.51067 86.7459 -9.51067 78.7556V-21.67C-9.51067 -29.6604 -6.33307 -37.3234 -0.676924 -42.9735C4.97923 -48.6235 12.6506 -51.7977 20.6496 -51.7977V-51.7977Z" stroke="#6C7679"/>
<path d="M350.521 313.948H310.064C296.556 313.948 283.18 311.29 270.701 306.127C258.221 300.963 246.882 293.395 237.331 283.854C227.779 274.312 220.203 262.985 215.033 250.519C209.864 238.053 207.204 224.692 207.204 211.199C207.204 202.205 208.977 193.298 212.423 184.988C215.869 176.678 220.919 169.128 227.286 162.768C233.653 156.408 241.212 151.363 249.531 147.921C257.85 144.479 266.766 142.707 275.77 142.707H350.521C355.023 142.707 359.481 143.593 363.64 145.314C367.8 147.035 371.579 149.557 374.762 152.737C377.946 155.917 380.471 159.693 382.194 163.848C383.917 168.003 384.804 172.456 384.804 176.953V279.702C384.804 288.785 381.192 297.495 374.762 303.918C368.333 310.34 359.613 313.948 350.521 313.948V313.948Z" fill="#D3D3D3"/>
<path d="M349.358 308.668H309.673C296.91 308.668 284.273 306.157 272.482 301.278C260.691 296.4 249.978 289.249 240.954 280.234C231.929 271.22 224.771 260.518 219.887 248.74C215.003 236.962 212.489 224.338 212.489 211.59V211.59C212.489 203.237 214.136 194.967 217.336 187.25C220.536 179.533 225.226 172.522 231.138 166.616C237.051 160.71 244.07 156.025 251.795 152.828C259.52 149.632 267.8 147.987 276.161 147.987H349.358C357.357 147.987 365.028 151.161 370.684 156.811C376.34 162.461 379.518 170.124 379.518 178.115V278.54C379.518 286.531 376.34 294.194 370.684 299.844C365.028 305.494 357.357 308.668 349.358 308.668V308.668Z" stroke="#6C7679"/>
<path d="M107.304 110.594V146.266" stroke="#6C7679"/>
<path d="M262.704 110.594V146.266" stroke="#6C7679"/>
<path d="M317.146 -0.00088501H52.8608C23.6686 -0.00088501 0.00363159 23.6385 0.00363159 52.7991V211.199C0.00363159 240.36 23.6686 263.999 52.8608 263.999H317.146C346.339 263.999 370.004 240.36 370.004 211.199V52.7991C370.004 23.6385 346.339 -0.00088501 317.146 -0.00088501Z" fill="#D3D3D3"/>
<path d="M317.147 5.27911H52.8608C26.5878 5.27911 5.28935 26.5545 5.28935 52.7991V211.199C5.28935 237.444 26.5878 258.719 52.8608 258.719H317.147C343.419 258.719 364.718 237.444 364.718 211.199V52.7991C364.718 26.5545 343.419 5.27911 317.147 5.27911Z" stroke="#6C7679"/>
<path d="M19.4868 142.707H94.2268C103.232 142.706 112.149 144.476 120.469 147.918C128.789 151.359 136.349 156.404 142.717 162.764C149.085 169.124 154.137 176.675 157.583 184.986C161.03 193.296 162.804 202.204 162.804 211.199C162.804 224.692 160.143 238.053 154.974 250.519C149.805 262.985 142.228 274.312 132.677 283.853C123.125 293.395 111.786 300.963 99.3064 306.127C86.8269 311.29 73.4514 313.948 59.9436 313.948H19.4868C14.9846 313.948 10.5266 313.062 6.36717 311.341C2.20774 309.62 -1.5716 307.098 -4.75509 303.917C-7.93857 300.737 -10.4638 296.962 -12.1867 292.807C-13.9096 288.652 -14.7964 284.199 -14.7964 279.702L-14.7964 176.953C-14.7964 167.87 -11.1844 159.16 -4.75509 152.737C1.67425 146.315 10.3943 142.707 19.4868 142.707V142.707Z" fill="#D3D3D3"/>
<path d="M20.6496 147.987H93.8462C110.733 147.987 126.928 154.688 138.869 166.616C150.81 178.544 157.518 194.721 157.518 211.59C157.518 224.338 155.004 236.962 150.12 248.74C145.236 260.518 138.078 271.22 129.054 280.234C120.029 289.249 109.316 296.4 97.5251 301.278C85.7343 306.157 73.097 308.668 60.3348 308.668H20.6496C12.6506 308.668 4.97923 305.494 -0.676924 299.844C-6.33307 294.194 -9.51067 286.531 -9.51067 278.54V178.115C-9.51067 170.124 -6.33307 162.461 -0.676924 156.811C4.97923 151.161 12.6506 147.987 20.6496 147.987V147.987Z" stroke="#6C7679"/>
<path d="M350.521 114.163L275.781 114.163C266.775 114.165 257.858 112.394 249.538 108.953C241.218 105.511 233.658 100.466 227.29 94.1061C220.922 87.7459 215.87 80.1949 212.424 71.8843C208.978 63.5738 207.204 54.6665 207.204 45.6711C207.204 32.1779 209.864 18.8169 215.033 6.35083C220.203 -6.11523 227.779 -17.4422 237.331 -26.9833C246.882 -36.5244 258.221 -44.0928 270.701 -49.2564C283.18 -54.42 296.556 -57.0777 310.064 -57.0777H350.521C355.023 -57.0777 359.481 -56.1919 363.64 -54.4709C367.8 -52.7499 371.579 -50.2273 374.762 -47.0473C377.946 -43.8672 380.471 -40.092 382.194 -35.937C383.917 -31.7821 384.804 -27.3289 384.804 -22.8316V79.9172C384.804 88.9998 381.192 97.7104 374.762 104.133C368.333 110.555 359.613 114.163 350.521 114.163V114.163Z" fill="#D3D3D3"/>
<path d="M349.358 108.883L276.161 108.883C259.274 108.883 243.079 102.182 231.138 90.2544C219.198 78.3265 212.489 62.1489 212.489 45.2804C212.489 32.5319 215.003 19.9083 219.887 8.1302C224.771 -3.64785 231.929 -14.3497 240.954 -23.3642C249.978 -32.3787 260.691 -39.5294 272.482 -44.4081C284.273 -49.2867 296.91 -51.7977 309.673 -51.7977H349.358C357.357 -51.7977 365.028 -48.6235 370.684 -42.9735C376.34 -37.3235 379.518 -29.6604 379.518 -21.67V78.7556C379.518 86.7459 376.34 94.409 370.684 100.059C365.028 105.709 357.357 108.883 349.358 108.883V108.883Z" stroke="#6C7679"/>
<path d="M131.089 -57.0777H16.9179C-0.597418 -57.0777 -14.7964 -42.894 -14.7964 -25.3977V82.4833C-14.7964 99.9797 -0.597418 114.163 16.9179 114.163H131.089C148.605 114.163 162.804 99.9797 162.804 82.4833V-25.3977C162.804 -42.894 148.605 -57.0777 131.089 -57.0777Z" fill="#D3D3D3"/>
<path d="M131.089 -51.7977H16.9179C2.32181 -51.7977 -9.51067 -39.978 -9.51067 -25.3977V82.4833C-9.51067 97.0636 2.32181 108.883 16.9179 108.883H131.089C145.685 108.883 157.518 97.0636 157.518 82.4833V-25.3977C157.518 -39.978 145.685 -51.7977 131.089 -51.7977Z" stroke="#6C7679"/>
<path d="M238.918 313.948H353.089C370.605 313.948 384.804 299.764 384.804 282.268V174.387C384.804 156.891 370.605 142.707 353.089 142.707L238.918 142.707C221.403 142.707 207.204 156.891 207.204 174.387L207.204 282.268C207.204 299.764 221.403 313.948 238.918 313.948Z" fill="#D3D3D3"/>
<path d="M238.918 308.668H353.089C367.685 308.668 379.518 296.848 379.518 282.268V174.387C379.518 159.807 367.685 147.987 353.089 147.987L238.918 147.987C224.322 147.987 212.489 159.807 212.489 174.387L212.489 282.268C212.489 296.848 224.322 308.668 238.918 308.668Z" stroke="#6C7679"/>
<path d="M107.304 110.594V146.266" stroke="#6C7679"/>
<path d="M262.704 110.594V146.266" stroke="#6C7679"/>
<path d="M348.861 5.27911H21.1465C12.3888 5.27911 5.28935 12.3709 5.28935 21.1191V242.879C5.28935 251.627 12.3888 258.719 21.1465 258.719H348.861C357.618 258.719 364.718 251.627 364.718 242.879V21.1191C364.718 12.3709 357.618 5.27911 348.861 5.27911Z" stroke="#6C7679"/>
</g>
<defs>
<clipPath id="clip0">
<rect width="370" height="264" rx="20" fill="white"/>
</clipPath>
</defs>
</svg>
