<svg width="87" height="69" viewBox="0 0 87 69" fill="none" xmlns="http://www.w3.org/2000/svg">
<path d="M51.2755 0.66834H35.2021C16.3038 0.658892 0.743591 14.7515 0.743591 35.13C0.743591 53.7732 16.3006 69.094 35.2021 68.9996H51.2755C69.9534 69.0877 87 53.7669 87 35.13C87 14.7452 69.9503 0.658892 51.2755 0.66834ZM35.2776 66.0582C18.0075 66.0488 4.00931 52.0474 4.00616 34.7741C4.00931 17.4945 18.0075 3.49317 35.2776 3.49002C52.551 3.49317 66.5523 17.4976 66.5523 34.7741C66.5523 52.0474 52.5541 66.0488 35.2776 66.0582Z" fill="black"/>
<path d="M42.3696 16.2663V53.2788C49.808 50.4162 55.0892 43.2234 55.1018 34.771C55.0923 26.3249 49.808 19.1195 42.3696 16.2663Z" fill="black"/>
<path d="M15.4598 34.771C15.4724 43.214 20.741 50.4099 28.1794 53.2694V16.2663C20.7441 19.1289 15.4755 26.328 15.4598 34.771Z" fill="black"/>
</svg>
