<svg width="229" height="71" viewBox="0 0 229 71" fill="none" xmlns="http://www.w3.org/2000/svg">
<path d="M91.6928 1.17288L80.0547 69.4698H98.6681L110.316 1.17288H91.6928Z" fill="black"/>
<path d="M64.4478 1.24947L46.2174 47.826L44.2738 40.7933C40.6784 32.3196 30.4717 20.1501 18.4889 12.4807L35.1586 69.4363L54.8539 69.4028L84.1671 1.23511L64.4478 1.24947Z" fill="black"/>
<path d="M37.2076 6.13736C36.1256 1.97712 32.9899 0.737185 29.0978 0.588776H0.23937L0 1.9484C22.4576 7.39645 37.3177 20.5235 43.4839 36.3075L37.2076 6.13736Z" fill="black"/>
<path d="M148.04 14.2664C154.13 14.1707 158.544 15.5016 161.972 16.8803L163.652 17.6703L166.17 2.86764C162.484 1.48409 156.706 0 149.496 0C131.103 0 118.138 9.26359 118.038 22.539C117.918 32.3484 127.273 37.8252 134.339 41.095C141.592 44.4461 144.024 46.5765 143.99 49.5686C143.933 54.1406 138.207 56.2375 132.86 56.2375C125.406 56.2375 121.447 55.2082 115.333 52.6613L112.935 51.5698L110.316 66.8559C114.672 68.7661 122.71 70.4081 131.055 70.4943C150.621 70.4943 163.336 61.3408 163.47 47.1558C163.552 39.3954 158.587 33.4734 147.83 28.6142C141.319 25.445 137.336 23.3385 137.374 20.1405C137.374 17.3016 140.754 14.2664 148.04 14.2664Z" fill="black"/>
<path d="M213.939 1.24945H199.558C195.091 1.24945 191.768 2.46545 189.806 6.91772L162.168 69.5081H181.715C181.715 69.5081 184.903 61.0918 185.626 59.2487C187.766 59.2487 206.758 59.2774 209.463 59.2774C210.018 61.6615 211.732 69.5081 211.732 69.5081H229L213.939 1.24945ZM190.983 45.2695C192.515 41.3486 198.399 26.1822 198.399 26.1822C198.298 26.3689 199.917 22.2326 200.879 19.6617L202.133 25.5502C202.133 25.5502 205.7 41.8561 206.447 45.2695H190.983Z" fill="black"/>
</svg>
