<svg width="411" height="69" viewBox="0 0 411 69" fill="none" xmlns="http://www.w3.org/2000/svg">
<path d="M18.5423 1.798H0V66.7524H18.5423C28.3192 66.7524 35.5114 64.3925 41.6922 59.2231C49.1091 53.0423 53.4918 43.8273 53.4918 34.2752C53.3795 15.171 39.1075 1.798 18.5423 1.798ZM33.3762 50.57C29.443 54.1661 24.2736 55.7394 16.07 55.7394H12.6987V12.811H16.07C24.2736 12.811 29.2182 14.2719 33.3762 18.0928C37.7589 22.026 40.3436 27.982 40.3436 34.2752C40.3436 40.456 37.7589 46.6368 33.3762 50.57Z" fill="black"/>
<path d="M71.9218 1.798H59.2231V66.7524H71.9218V1.798Z" fill="black"/>
<path d="M102.826 26.7459C95.184 23.9365 93.0488 22.0261 93.0488 18.5424C93.0488 14.4967 96.9821 11.3502 102.489 11.3502C106.309 11.3502 109.344 12.9235 112.715 16.6319L119.345 7.97883C113.951 3.25896 107.433 0.786652 100.241 0.786652C88.7785 0.786652 80.013 8.76548 80.013 19.329C80.013 28.3192 84.0586 32.8143 95.9707 37.0847C100.915 38.8827 103.5 40.0065 104.736 40.7932C107.321 42.4788 108.557 44.8388 108.557 47.5358C108.557 52.8176 104.399 56.6384 98.7801 56.6384C92.7117 56.6384 87.8795 53.6042 84.9576 47.9853L76.7541 55.8518C82.5977 64.3925 89.5651 68.2133 99.2296 68.2133C112.378 68.2133 121.593 59.4479 121.593 46.8616C121.593 36.6352 117.322 32.0277 102.826 26.7459Z" fill="black"/>
<path d="M125.526 34.2752C125.526 53.3795 140.472 68.101 159.801 68.101C165.195 68.101 169.915 66.9772 175.647 64.2801V49.3339C170.59 54.3909 166.094 56.4137 160.363 56.4137C147.664 56.4137 138.562 47.1987 138.562 34.0505C138.562 21.5766 147.889 11.7997 159.801 11.7997C165.87 11.7997 170.365 13.9349 175.647 19.1042V4.15799C170.14 1.34854 165.533 0.224762 160.026 0.224762C140.922 0.33714 125.526 15.3958 125.526 34.2752Z" fill="black"/>
<path d="M276 45.4006L258.694 1.798H244.871L272.516 68.4381H279.259L307.353 1.798H293.643L276 45.4006Z" fill="black"/>
<path d="M313.085 66.7524H348.933V55.7394H325.671V38.2084H348.034V27.1954H325.671V12.811H348.933V1.798H313.085V66.7524Z" fill="black"/>
<path d="M399.054 21.0146C399.054 8.87781 390.738 1.798 376.129 1.798H357.361V66.7524H370.06V40.6807H371.746L389.277 66.7524H404.897L384.445 39.4446C393.772 37.4218 399.054 30.9039 399.054 21.0146ZM373.656 31.6905H369.948V12.0244H373.881C381.747 12.0244 386.018 15.2834 386.018 21.6889C386.018 28.2068 381.747 31.6905 373.656 31.6905Z" fill="black"/>
<path d="M214.305 69C233.358 69 248.805 53.5538 248.805 34.5C248.805 15.4462 233.358 0 214.305 0C195.251 0 179.805 15.4462 179.805 34.5C179.805 53.5538 195.251 69 214.305 69Z" fill="black"/>
<path d="M407.145 4.27034C407.145 3.14656 406.358 2.47229 405.01 2.47229H403.212V8.20357H404.56V5.95601L406.133 8.20357H407.819L405.909 5.84363C406.695 5.61887 407.145 5.05699 407.145 4.27034ZM404.785 5.05698H404.56V3.59607H404.785C405.459 3.59607 405.796 3.82082 405.796 4.38271C405.796 4.83222 405.459 5.05698 404.785 5.05698Z" fill="black"/>
<path d="M405.234 0.337128C402.425 0.337128 400.29 2.58468 400.29 5.28175C400.29 8.09119 402.537 10.2264 405.234 10.2264C407.932 10.2264 410.179 7.97881 410.179 5.28175C410.179 2.58468 407.932 0.337128 405.234 0.337128ZM405.234 9.43972C403.099 9.43972 401.301 7.64169 401.301 5.39413C401.301 3.14657 403.099 1.34852 405.234 1.34852C407.37 1.34852 409.168 3.25895 409.168 5.39413C409.168 7.64169 407.37 9.43972 405.234 9.43972Z" fill="black"/>
</svg>
