<svg width="112" height="70" viewBox="0 0 112 70" fill="none" xmlns="http://www.w3.org/2000/svg">
<path d="M70.9169 7.37902H40.7272V61.6343H70.9169V7.37902Z" fill="#333333"/>
<path d="M42.6439 34.5107C42.6384 29.2848 43.822 24.1261 46.1051 19.4253C48.3883 14.7245 51.7111 10.6048 55.822 7.37825C50.732 3.37807 44.6193 0.8906 38.1825 0.200128C31.7457 -0.490345 25.2445 0.644038 19.4219 3.47363C13.5993 6.30322 8.69026 10.7139 5.25579 16.2014C1.82132 21.689 0 28.0322 0 34.5059C0 40.9796 1.82132 47.3228 5.25579 52.8104C8.69026 58.2979 13.5993 62.7086 19.4219 65.5382C25.2445 68.3678 31.7457 69.5021 38.1825 68.8117C44.6193 68.1212 50.732 65.6337 55.822 61.6336C51.7124 58.408 48.3903 54.2898 46.1072 49.5908C43.8241 44.8918 42.6398 39.735 42.6439 34.5107V34.5107Z" fill="black"/>
<path d="M111.649 34.5114C111.649 40.9856 109.827 47.3291 106.392 52.8169C102.957 58.3047 98.0473 62.7153 92.2239 65.5444C86.4006 68.3736 79.8987 69.5073 73.4616 68.8158C67.0244 68.1244 60.9116 65.6357 55.822 61.6342C59.93 58.4058 63.2512 54.2865 65.5349 49.5873C67.8186 44.888 69.0052 39.7314 69.0052 34.5066C69.0052 29.2818 67.8186 24.1252 65.5349 19.4259C63.2512 14.7266 59.93 10.6074 55.822 7.37893C60.9116 3.37751 67.0244 0.88883 73.4616 0.197366C79.8987 -0.494098 86.4006 0.639555 92.2239 3.46874C98.0473 6.29793 102.957 10.7085 106.392 16.1963C109.827 21.684 111.649 28.0276 111.649 34.5018V34.5114Z" fill="#575757"/>
<path d="M108.352 55.8839V54.7721H108.803V54.5421H107.662V54.7721H108.151V55.8839H108.352ZM110.566 55.8839V54.5421H110.221L109.819 55.5005L109.416 54.5421H109.109V55.8839H109.359V54.8776L109.732 55.7497H109.991L110.365 54.8776V55.8935L110.566 55.8839Z" fill="black"/>
</svg>
